{"title":"Klangkarussell Ft. Will Heard - Sonnentanz [Music Video] 1080p [","uid":9461251,"size":61113647,"categoryP":"video","categoryS":"music_videos","magnet":"?xt=urn:btih:cd180fdeaeaf2a4737baf4a52af6a728834bc6fe&amp;dn=Klangkarussell+Ft.+Will+Heard+-+Sonnentanz+%5BMusic+Video%5D+1080p+%5B&amp;tr=udp%3A%2F%2Ftracker.openbittorrent.com%3A80&amp;tr=udp%3A%2F%2Fopen.demonii.com%3A1337&amp;tr=udp%3A%2F%2Ftracker.coppersurfer.tk%3A6969&amp;tr=udp%3A%2F%2Fexodus.desync.com%3A6969","seeders":2,"leechers":0,"uploader":"Sbyky","files":1,"time":1389358923,"description":"\n\nGeneral\nComplete name                            : Klangkarussell Ft. Will Heard - Sonnentanz [Music Video] 1080p [Sbyky].MP4\nFormat                                   : MPEG-4\nFormat profile                           : Base Media\nCodec ID                                 : isom\nFile size                                : 58.3 MiB\nDuration                                 : 3mn 50s\nOverall bit rate mode                    : Variable\nOverall bit rate                         : 2 122 Kbps\nEncoded date                             : UTC 2013-12-31 20:15:58\nTagged date                              : UTC 2013-12-31 20:15:58\n\nVideo\nID                                       : 1\nFormat                                   : AVC\nFormat/Info                              : Advanced Video Codec\nFormat profile                           : &lt;a class=&quot;__cf_email__&quot; href=&quot;/cdn-cgi/l/email-protection&quot; data-cfemail=&quot;6d25040a052d2159435d&quot;&gt;[email&amp;#160;protected]&lt;/a&gt;&lt;script cf-hash='f9e31' type=&quot;text/javascript&quot;&gt;\n/* &lt;![CDATA[ */!function(){try{var t=&quot;currentScript&quot;in document?document.currentScript:function(){for(var t=document.getElementsByTagName(&quot;script&quot;),e=t.length;e--;)if(t[e].getAttribute(&quot;cf-hash&quot;))return t[e]}();if(t&amp;&amp;t.previousSibling){var e,r,n,i,c=t.previousSibling,a=c.getAttribute(&quot;data-cfemail&quot;);if(a){for(e=&quot;&quot;,r=parseInt(a.substr(0,2),16),n=2;a.length-n;n+=2)i=parseInt(a.substr(n,2),16)^r,e+=String.fromCharCode(i);e=document.createTextNode(e),c.parentNode.replaceChild(e,c)}}}catch(u){}}();/* ]]&gt; */&lt;/script&gt;\nFormat settings, CABAC                   : Yes\nFormat settings, ReFrames                : 3 frames\nCodec ID                                 : avc1\nCodec ID/Info                            : Advanced Video Coding\nDuration                                 : 3mn 50s\nBit rate                                 : 1 995 Kbps\nWidth                                    : 1 920 pixels\nHeight                                   : 1 080 pixels\nDisplay aspect ratio                     : 16:9\nFrame rate mode                          : Constant\nFrame rate                               : 25.000 fps\nColor space                              : YUV\nChroma subsampling                       : 4:2:0\nBit depth                                : 8 bits\nScan type                                : Progressive\nBits/(Pixel*Frame)                       : 0.038\nStream size                              : 54.8 MiB (94%)\nEncoded date                             : UTC 2013-12-31 20:15:58\nTagged date                              : UTC 2013-12-31 20:15:58\n\nAudio\nID                                       : 2\nFormat                                   : AAC\nFormat/Info                              : Advanced Audio Codec\nFormat profile                           : LC\nCodec ID                                 : 40\nDuration                                 : 3mn 50s\nBit rate mode                            : Variable\nBit rate                                 : 126 Kbps\nChannel(s)                               : 2 channels\nChannel positions                        : Front: L R\nSampling rate                            : 44.1 KHz\nCompression mode                         : Lossy\nDelay relative to video                  : 40ms\nStream size                              : 3.45 MiB (6%)\nEncoded date                             : UTC 2013-12-31 20:14:46\nTagged date                              : UTC 2013-12-31 20:14:46\n\nShared By Sbyky\n","torrent":{"xt":"urn:btih:cd180fdeaeaf2a4737baf4a52af6a728834bc6fe","amp;dn":"Klangkarussell+Ft.+Will+Heard+-+Sonnentanz+%5BMusic+Video%5D+1080p+%5B","amp;tr":["udp%3A%2F%2Ftracker.openbittorrent.com%3A80","udp%3A%2F%2Fopen.demonii.com%3A1337","udp%3A%2F%2Ftracker.coppersurfer.tk%3A6969","udp%3A%2F%2Fexodus.desync.com%3A6969"],"infoHash":"cd180fdeaeaf2a4737baf4a52af6a728834bc6fe","infoHashBuffer":{"type":"Buffer","data":[205,24,15,222,174,175,42,71,55,186,244,165,42,246,167,40,131,75,198,254]},"announce":[],"urlList":[]}}